/vscmnt/brussel_pixiu_data/_data_brussel/112/vsc11236/PredSimResults/SUBJ10mtu3D/weighted-trackIG/worker_04.mot
version=1
nRows=10
nColumns=50
inDegrees=yes
endheader
                time	         pelvis_tilt	         pelvis_list	     pelvis_rotation	           pelvis_tx	           pelvis_ty	           pelvis_tz	       hip_flexion_r	     hip_adduction_r	      hip_rotation_r	        knee_angle_r	       ankle_angle_r	         mtp_angle_r	       hip_flexion_l	     hip_adduction_l	      hip_rotation_l	        knee_angle_l	       ankle_angle_l	         mtp_angle_l	    lumbar_extension	      lumbar_bending	     lumbar_rotation	 ercspn_r/activation	 intobl_r/activation	 extobl_r/activation	    abd_r/activation	    add_r/activation	hamstrings_r/activation	bifemsh_r/activation	glut_max_r/activation	iliopsoas_r/activation	rect_fem_r/activation	  vasti_r/activation	gastroc_r/activation	 soleus_r/activation	tib_ant_r/activation	 ercspn_l/activation	 intobl_l/activation	 extobl_l/activation	    abd_l/activation	    add_l/activation	hamstrings_l/activation	bifemsh_l/activation	glut_max_l/activation	iliopsoas_l/activation	rect_fem_l/activation	  vasti_l/activation	gastroc_l/activation	 soleus_l/activation	tib_ant_l/activation	
          0.00000000	         -4.86663390	         -3.14472401	         10.61873051	          0.00000000	          0.82958502	         -0.01618865	         28.11965844	         -0.78583642	         -8.22409742	         -3.80576281	          6.66594579	          0.24980601	        -11.53870866	         -3.18417020	          6.62031747	         -8.12169647	         10.57818191	         23.79600753	         -6.25126936	          1.04262071	         -3.69124807	          0.08530638	          0.16485714	          0.02078853	          0.01200615	          0.13022470	          0.02297439	          0.08114023	          0.00999999	          0.06605616	          0.01453354	          0.01200615	          0.00999999	          0.00999999	          0.26514105	          0.03365228	          0.00999999	          0.00999999	          0.04317493	          0.03824456	          0.02563415	          0.12022967	          0.03596066	          0.30954929	          0.00999999	          0.00999999	          0.25716347	          0.24520659	          0.01551299	
          0.01203694	         -4.93898960	         -2.93450113	         10.43993614	          0.01496700	          0.82786694	         -0.01564881	         28.16634786	         -0.61679761	         -7.19388515	         -5.39565237	          6.39033702	          0.24431360	        -11.63833539	         -2.96719500	          5.92683701	         -9.85566441	         10.15944462	         25.42016481	         -6.02552913	          1.41230419	         -3.86340953	          0.07105220	          0.14230568	          0.01731489	          0.00999999	          0.18510368	          0.02507608	          0.07760529	          0.05184042	          0.05501857	          0.01210507	          0.00999999	          0.01866570	          0.01730661	          0.26943540	          0.07452655	          0.00999999	          0.00999999	          0.03596066	          0.08483695	          0.02135084	          0.10014001	          0.02995185	          0.32191101	          0.00999999	          0.00999999	          0.21678596	          0.23433120	          0.01292086	
          0.02407388	         -4.99534160	         -2.73128375	         10.19889321	          0.03025163	          0.82629702	         -0.01505726	         28.02798097	         -0.45270153	         -6.15303596	         -6.86968485	          6.09059495	          0.23862271	        -11.58900891	         -2.74410188	          5.18276005	        -11.92742763	          9.62952893	         27.02942652	         -5.78050022	          1.80991765	         -4.01626770	          0.06975454	          0.11852726	          0.01442168	          0.04925296	          0.16359194	          0.04003667	          0.07969891	          0.06088913	          0.04582530	          0.01008238	          0.00999999	          0.01554678	          0.01441478	          0.30068515	          0.08981843	          0.00999999	          0.00999999	          0.02995185	          0.07821840	          0.01778325	          0.08340722	          0.02494708	          0.31163569	          0.00999999	          0.00999999	          0.18056233	          0.21907566	          0.01076187	
          0.03611082	         -5.03729855	         -2.53245947	          9.89667870	          0.04565303	          0.82503059	         -0.01436406	         27.74516244	         -0.26736854	         -5.18901551	         -8.10532923	          5.71897381	          0.22757487	        -11.32820967	         -2.51769258	          4.39273456	        -14.40225317	          8.93345926	         28.56792929	         -5.53632006	          2.22209406	         -4.14682006	          0.07771490	          0.09872207	          0.01201190	          0.08907910	          0.16773575	          0.04031902	          0.06638170	          0.07790606	          0.03816817	          0.00999999	          0.00999999	          0.01294900	          0.01200616	          0.31751315	          0.11300765	          0.00999999	          0.00999999	          0.02494707	          0.08476996	          0.01859499	          0.06947037	          0.02077857	          0.29824684	          0.00999999	          0.00999999	          0.15039145	          0.19045552	          0.00999999	
          0.04814776	         -5.06511158	         -2.34253064	          9.53838118	          0.06098318	          0.82419057	         -0.01357719	         27.39968330	         -0.05864670	         -4.32680108	         -9.24639489	          5.37818709	          0.21880826	        -10.81670583	         -2.29721479	          3.54638113	        -17.30660905	          8.05162520	         29.89289067	         -5.30830681	          2.65204312	         -4.25226312	          0.07047817	          0.08222620	          0.01000478	          0.11029430	          0.16518970	          0.04201287	          0.05528972	          0.07784887	          0.03179049	          0.00999999	          0.03596273	          0.01078530	          0.01000000	          0.33573298	          0.13144268	          0.00999999	          0.00999999	          0.02077857	          0.09690724	          0.02212088	          0.05786229	          0.01730660	          0.27481769	          0.00999999	          0.00999999	          0.12526194	          0.15863155	          0.00999999	
          0.06018470	         -5.07972461	         -2.16241349	          9.12716234	          0.07611429	          0.82385368	         -0.01271191	         27.01152560	          0.16636345	         -3.55875238	        -10.31176034	          5.10217137	          0.20841112	        -10.04009362	         -2.09325981	          2.62413487	        -20.62803541	          6.99867543	         30.77276231	         -5.10656499	          3.09797971	         -4.33223667	          0.05870169	          0.06848670	          0.00999999	          0.12022889	          0.13758749	          0.04556444	          0.04605114	          0.06484080	          0.02647849	          0.00999999	          0.09695252	          0.00999999	          0.00999999	          0.34545278	          0.14246802	          0.00999999	          0.00999999	          0.01730659	          0.11141476	          0.02808507	          0.04819385	          0.01441477	          0.24158851	          0.00999999	          0.00999999	          0.10433142	          0.13212517	          0.00999999	
          0.07222164	         -5.08358659	         -1.98447423	          8.66323174	          0.09095557	          0.82411257	         -0.01179446	         26.54742727	          0.39449639	         -2.87297086	        -11.23696291	          4.94603908	          0.19717168	         -9.00390354	         -1.91189144	          1.61280406	        -24.31098220	          5.74790579	         31.01738394	         -4.93972762	          3.55015048	         -4.38546538	          0.04889299	          0.05704298	          0.00999999	          0.12263065	          0.11459745	          0.04559752	          0.03835627	          0.05584860	          0.02205410	          0.00999999	          0.14595622	          0.00999999	          0.00999999	          0.34552036	          0.14943703	          0.00999999	          0.00999999	          0.01441477	          0.12708204	          0.02371968	          0.04014095	          0.01200615	          0.20339204	          0.00999999	          0.00999999	          0.08689827	          0.11004785	          0.00999999	
          0.08425858	         -5.07881881	         -1.79613549	          8.14427714	          0.10547808	          0.82502159	         -0.01085029	         25.96295957	          0.61052386	         -2.25527287	        -11.94404131	          4.93342644	          0.18832925	         -7.74138357	         -1.75582278	          0.52630559	        -28.23863040	          4.17429400	         30.63475007	         -4.81063306	          3.99381765	         -4.40874363	          0.04072327	          0.04751144	          0.00999999	          0.11842338	          0.09544890	          0.04721089	          0.03194717	          0.05070791	          0.01836899	          0.00999999	          0.17025543	          0.00999999	          0.00999999	          0.33577837	          0.15371535	          0.00999999	          0.00999999	          0.01200614	          0.14122099	          0.02077858	          0.05068608	          0.00999999	          0.16940645	          0.00999999	          0.00999999	          0.07237809	          0.09165951	          0.00999999	
          0.09629552	         -5.06644338	         -1.58144876	          7.56857342	          0.11968631	          0.82654036	         -0.00989877	         25.24206865	          0.79472765	         -1.67884552	        -12.40514087	          5.04725728	          0.18343007	         -6.30140096	         -1.61942602	         -0.60715503	        -32.28492908	          2.29867601	         29.50174645	         -4.71917413	          4.41018161	         -4.40006595	          0.03391865	          0.03957256	          0.00999999	          0.12278159	          0.07949996	          0.04667477	          0.02660899	          0.04223493	          0.01529964	          0.00999999	          0.16663808	          0.00999999	          0.00999999	          0.31875278	          0.15413901	          0.00999999	          0.00999999	          0.00999999	          0.14488837	          0.01730660	          0.04221674	          0.00999999	          0.14109965	          0.00999999	          0.00999999	          0.06028414	          0.07634376	          0.04451745	
          0.10833246	         -5.04613586	         -1.33267402	          6.94129413	          0.13357252	          0.82851530	         -0.00895804	         24.41276730	          0.93410645	         -1.10778181	        -12.66578270	          5.24889017	          0.18468979	         -4.73904529	         -1.49686405	         -1.76109355	        -36.37771789	          0.49132110	         27.20894003	         -4.66565992	          4.78753002	         -4.36126858	          0.02825105	          0.03296023	          0.00999999	          0.13417303	          0.06621600	          0.04373754	          0.02216279	          0.04069500	          0.01274316	          0.00999999	          0.15426422	          0.00999999	          0.00999999	          0.29893501	          0.17509211	          0.04009983	          0.00999999	          0.00999999	          0.12067840	          0.01441477	          0.03516258	          0.00999999	          0.11752275	          0.00999999	          0.00999999	          0.05021102	          0.06358717	          0.14338126	
